<?xml version="1.0" encoding="UTF-8"?>
<!-- Generator: https://ezgif.com/webp-to-svg -->
<svg version="1.1" xmlns="http://www.w3.org/2000/svg" width="1024" height="1024">
<path d="M0 0 C1.42 0.21 2.83 0.41 4.25 0.62 C59.22 8.7 110.43 25.03 160 50 C160.91 50.46 161.83 50.91 162.77 51.38 C186.9 63.48 209.67 78.48 231 95 C231.53 95.41 232.07 95.82 232.62 96.24 C242.06 103.48 251.11 111.1 260 119 C260.52 119.46 261.04 119.92 261.57 120.39 C269.44 127.4 276.91 134.81 284.38 142.25 C284.85 142.72 285.32 143.19 285.81 143.68 C291.43 149.28 296.87 154.95 302 161 C302.88 162.01 303.75 163.02 304.63 164.03 C312.11 172.76 319.13 181.79 326 191 C326.54 191.73 327.09 192.46 327.65 193.21 C380.94 264.87 412.41 351.2 420 440 C420.09 441.08 420.19 442.15 420.29 443.26 C427.66 538.32 405.88 633.54 342 746 C341.52 746.73 341.03 747.46 340.54 748.21 C330.87 762.75 320.24 776.63 309 790 C308.56 790.52 308.13 791.04 307.68 791.58 C293.89 808.01 279.3 824.5 262.9 838.38 C260.67 840.28 258.53 842.27 256.38 844.25 C250.79 849.29 244.9 853.88 238.95 858.48 C236.95 860.04 234.98 861.62 233.02 863.21 C213.1 879.22 191.26 892.54 169 905 C168.19 905.45 167.38 905.91 166.55 906.38 C73.11 958.36 -41.57 975.44 -182.83 947.21 C-222.24 935.89 -260.38 920.34 -296 900 C-296.88 899.5 -297.75 899.01 -298.65 898.5 C-339.13 875.49 -378.35 847.34 -411 814 C-413.73 811.26 -416.47 808.54 -419.23 805.84 C-426.31 798.89 -432.93 791.85 -439 784 C-440.16 782.53 -440.16 782.53 -441.35 781.03 C-448.23 772.26 -454.67 763.17 -461 754 C-461.43 753.37 -461.87 752.75 -462.31 752.1 C-508.35 685.18 -538.65 606.22 -545 525 C-545.06 524.32 -545.11 523.65 -545.17 522.95 C-548.89 476.77 -543.87 429.93 -533 385 C-532.75 383.95 -532.49 382.89 -532.23 381.81 C-522.44 342.08 -507.3 304.52 -489 268 C-488.55 267.1 -488.1 266.19 -487.63 265.26 C-470.54 231.18 -448.44 199.22 -424 170 C-423.56 169.47 -423.12 168.95 -422.67 168.4 C-411.43 155.01 -399.47 142.39 -387.12 130 C-386.25 129.12 -385.37 128.23 -384.46 127.32 C-379.47 122.34 -374.36 117.58 -369 113 C-367.92 112.05 -366.83 111.1 -365.75 110.15 C-356.81 102.35 -347.52 95.09 -338 88 C-336.93 87.2 -336.93 87.2 -335.84 86.39 C-291.28 53.16 -240.62 27.8 -187 13 C-185.92 12.7 -184.84 12.4 -183.73 12.09 C-164.73 6.86 -145.52 3.18 -126.04 0.3 C-124.16 0.02 -122.29 -0.26 -120.42 -0.55 C-82.03 -6.16 -38.32 -5.81 0 0 Z " fill="#A9392D" transform="translate(576,31)"/>
<path d="M0 0 C1.42 0.21 2.83 0.41 4.25 0.62 C59.22 8.7 110.43 25.03 160 50 C160.91 50.46 161.83 50.91 162.77 51.38 C186.9 63.48 209.67 78.48 231 95 C231.53 95.41 232.07 95.82 232.62 96.24 C242.06 103.48 251.11 111.1 260 119 C260.52 119.46 261.04 119.92 261.57 120.39 C269.44 127.4 276.91 134.81 284.38 142.25 C284.85 142.72 285.32 143.19 285.81 143.68 C291.43 149.28 296.87 154.95 302 161 C302.88 162.01 303.75 163.02 304.63 164.03 C312.11 172.76 319.13 181.79 326 191 C326.54 191.73 327.09 192.46 327.65 193.21 C380.94 264.87 412.41 351.2 420 440 C420.09 441.08 420.19 442.15 420.29 443.26 C427.66 538.32 405.88 633.54 342 746 C341.52 746.73 341.03 747.46 340.54 748.21 C330.87 762.76 320.2 776.6 309 790 C305.64 788.52 303.26 786.61 300.56 784.12 C299.24 782.92 299.24 782.92 297.89 781.69 C295.91 779.84 293.92 777.99 291.95 776.12 C284.88 769.48 277.6 763.33 269.89 757.45 C267.91 755.93 265.94 754.39 263.97 752.84 C249.15 741.28 233.59 731.17 217.43 721.59 C216.67 721.14 215.92 720.69 215.15 720.23 C213.06 718.99 213.06 718.99 211.02 718.07 C205.43 715.39 203.85 711.78 201.62 706.31 C201.25 705.44 200.88 704.57 200.5 703.67 C195.86 692.63 191.88 681.33 188 670 C187.71 669.17 187.42 668.34 187.12 667.49 C170.57 620.04 167.55 570.32 175 521 C175.11 520.3 175.21 519.59 175.32 518.87 C177.05 507.45 178.81 496.02 181.05 484.69 C182.43 477.15 183 469.51 183.62 461.88 C183.69 461.09 183.76 460.3 183.82 459.48 C185.15 443.32 185.7 427.27 184.5 411.08 C184.08 405.15 183.91 399.26 183.86 393.32 C183.21 319.58 167.24 250.65 115 196 C114.36 195.32 113.73 194.65 113.07 193.95 C108.13 188.81 102.61 184.39 97 180 C96.45 179.57 95.91 179.14 95.34 178.7 C60.14 151.36 16.77 135.67 -27 129 C-27.76 128.88 -28.51 128.76 -29.29 128.64 C-53.19 125.05 -78.25 126.04 -102 130 C-102.9 130.14 -103.79 130.29 -104.72 130.44 C-146.82 137.34 -188.3 154.27 -221 182 C-221.84 182.71 -222.68 183.42 -223.55 184.16 C-226.09 186.38 -228.55 188.67 -231 191 C-231.83 191.78 -231.83 191.78 -232.67 192.58 C-242.57 201.94 -251.14 211.88 -259 223 C-259.62 223.88 -259.62 223.88 -260.26 224.77 C-289.19 266.32 -298.57 316.49 -303 366 C-303.07 366.74 -303.13 367.48 -303.2 368.24 C-307.61 417.43 -306.06 463.84 -297.51 512.45 C-290.67 551.38 -289.61 589.78 -298.47 628.58 C-299.02 631.1 -299.51 633.63 -299.98 636.17 C-303.34 653.64 -308.98 670.3 -315 687 C-315.44 688.23 -315.88 689.46 -316.34 690.72 C-317.56 694.06 -318.83 697.38 -320.12 700.69 C-320.48 701.65 -320.84 702.62 -321.21 703.62 C-324.02 710.47 -327.53 713.55 -334 717 C-335.13 717.63 -336.26 718.27 -337.43 718.92 C-338.57 719.53 -339.7 720.13 -340.88 720.75 C-362.95 732.85 -383.96 747.99 -402.99 764.43 C-405.78 766.81 -408.62 769.1 -411.5 771.38 C-416.62 775.52 -421.21 780.09 -425.76 784.84 C-427.14 786.26 -428.57 787.63 -430 789 C-430.66 789 -431.32 789 -432 789 C-432.33 789.66 -432.66 790.32 -433 791 C-491.92 722.99 -529.73 636.11 -545 525 C-545.06 524.32 -545.11 523.65 -545.17 522.95 C-548.89 476.77 -543.87 429.93 -533 385 C-532.75 383.95 -532.49 382.89 -532.23 381.81 C-522.44 342.08 -507.3 304.52 -489 268 C-488.55 267.1 -488.1 266.19 -487.63 265.26 C-470.54 231.18 -448.44 199.22 -424 170 C-423.56 169.47 -423.12 168.95 -422.67 168.4 C-411.43 155.01 -399.47 142.39 -387.12 130 C-386.25 129.12 -385.37 128.23 -384.46 127.32 C-379.47 122.34 -374.36 117.58 -369 113 C-367.92 112.05 -366.83 111.1 -365.75 110.15 C-356.81 102.35 -347.52 95.09 -338 88 C-336.93 87.2 -336.93 87.2 -335.84 86.39 C-291.28 53.16 -240.62 27.8 -187 13 C-185.92 12.7 -184.84 12.4 -183.73 12.09 C-164.73 6.86 -145.52 3.18 -126.04 0.3 C-124.16 0.02 -122.29 -0.26 -120.42 -0.55 C-82.03 -6.16 -38.32 -5.81 0 0 Z " fill="#83CFF6" transform="translate(576,31)"/>
<path d="M0 0 C4.49 2.64 9.02 5.19 13.56 7.75 C21.47 12.24 29.21 16.95 36.93 21.76 C105.28 66.48 105.28 66.48 182.87 82.69 C184.55 82.06 186.22 81.39 187.87 80.69 C194.79 80.19 201.27 82.79 206.87 86.69 C209.63 89.46 211.79 92.4 213.87 95.69 C214.27 96.32 214.67 96.95 215.08 97.59 C221.49 108.99 222.55 123.19 219.68 135.75 C215.3 151.14 207.68 165.26 193.79 174 C187.7 177.17 181.63 177.53 174.87 176.69 C172.52 175.92 170.95 175.08 168.87 173.69 C166.69 178.57 164.53 183.46 162.43 188.37 C151.03 214.79 137.65 239.01 119.87 261.69 C119.14 262.64 118.4 263.59 117.64 264.57 C108.58 275.98 98.68 287.53 86.64 295.89 C84.84 297.16 84.84 297.16 82.87 299.69 C82.87 302.77 83.11 304.79 83.87 307.69 C84.05 308.42 84.23 309.15 84.41 309.91 C85 312.2 85.65 314.48 86.31 316.75 C86.53 317.52 86.74 318.28 86.97 319.07 C87.6 321.28 88.23 323.49 88.87 325.69 C89.26 327.04 89.65 328.4 90.03 329.75 C90.31 330.72 90.59 331.69 90.87 332.69 C91.65 332.83 92.43 332.97 93.24 333.12 C96.8 333.76 100.37 334.42 103.93 335.07 C105.16 335.29 106.39 335.51 107.66 335.74 C113.49 336.81 119.22 337.89 124.87 339.69 C121.19 344.64 116.9 348.23 112.1 352.07 C108.44 355.01 104.91 358.1 101.37 361.19 C97.09 364.93 92.79 368.62 88.37 372.19 C83.34 376.27 78.45 380.5 73.56 384.75 C67.91 389.67 62.2 394.52 56.46 399.35 C53.76 401.63 51.07 403.91 48.37 406.19 C45.13 408.93 41.9 411.67 38.66 414.41 C37.58 415.31 36.51 416.22 35.43 417.13 C34.9 417.58 34.37 418.03 33.82 418.49 C30.38 421.4 26.95 424.34 23.54 427.28 C17.98 432.06 12.38 436.76 6.69 441.38 C1.36 445.75 -3.88 450.23 -9.13 454.69 C-13.59 453.27 -16.46 450.83 -19.75 447.63 C-24.5 443.15 -29.4 438.97 -34.48 434.87 C-37.1 432.71 -39.62 430.48 -42.13 428.19 C-45.52 425.1 -48.99 422.14 -52.57 419.25 C-57.34 415.39 -61.86 411.32 -66.38 407.16 C-69.96 403.94 -73.7 400.93 -77.45 397.91 C-80.08 395.74 -82.61 393.49 -85.13 391.19 C-88.55 388.08 -92.03 385.1 -95.63 382.19 C-100.09 378.58 -104.36 374.81 -108.6 370.94 C-111.22 368.61 -113.9 366.4 -116.63 364.19 C-121.08 360.59 -125.34 356.83 -129.56 352.97 C-133.26 349.69 -137.11 346.61 -140.98 343.54 C-143.13 341.69 -143.13 341.69 -144.13 339.69 C-140.57 338.88 -137 338.07 -133.44 337.25 C-131.93 336.91 -131.93 336.91 -130.39 336.56 C-129.41 336.33 -128.44 336.11 -127.43 335.88 C-126.53 335.68 -125.64 335.47 -124.72 335.26 C-119.71 334.16 -115.29 333.59 -110.13 333.69 C-109.96 333.06 -109.79 332.43 -109.61 331.78 C-109.37 330.88 -109.13 329.99 -108.88 329.07 C-108.47 327.57 -108.47 327.57 -108.06 326.04 C-107.42 323.73 -106.74 321.42 -106.04 319.13 C-105.68 317.93 -105.31 316.74 -104.94 315.5 C-104.6 314.4 -104.25 313.29 -103.9 312.15 C-102.95 307.9 -102.59 305.05 -103.13 300.69 C-104.77 298.22 -106.84 296.49 -109.13 294.63 C-109.72 294.11 -110.32 293.6 -110.93 293.07 C-112.65 291.59 -114.38 290.14 -116.13 288.69 C-121.63 284 -126.52 279.28 -131.13 273.69 C-131.54 273.2 -131.95 272.71 -132.38 272.21 C-151.26 249.75 -187.13 204.44 -187.13 173.69 C-187.98 174.18 -188.83 174.66 -189.71 175.16 C-195.43 177.72 -200.98 177.54 -207.13 176.69 C-210.88 175.16 -213.94 173.18 -217.13 170.69 C-217.95 170.08 -218.78 169.47 -219.62 168.84 C-227.41 162.17 -232.42 153.11 -236.13 143.69 C-236.48 142.89 -236.83 142.08 -237.2 141.25 C-241.69 128.94 -240.63 112.49 -235.61 100.58 C-231.33 92.25 -225.23 84.77 -216.13 81.69 C-213.23 81.5 -213.23 81.5 -210.32 81.57 C-209.34 81.58 -208.36 81.6 -207.36 81.62 C-206.62 81.64 -205.89 81.67 -205.13 81.69 C-205.14 80.86 -205.16 80.03 -205.18 79.17 C-206.27 11.6 -206.27 11.6 -192.19 -6.31 C-190.86 -7.67 -189.51 -9 -188.13 -10.31 C-187.02 -11.66 -185.91 -13.01 -184.82 -14.37 C-132.6 -73.1 -54.2 -32.24 0 0 Z " fill="#E49872" transform="translate(523.12890625,354.30810546875)"/>
<path d="M0 0 C0.7 -0 1.39 -0 2.11 -0 C23.53 0.03 44.23 2.79 64.94 8.25 C65.89 8.5 66.84 8.74 67.82 9 C110.17 20.19 147.35 39.99 178.94 70.25 C180.06 71.31 180.06 71.31 181.21 72.4 C186.61 77.62 191.32 83.33 195.94 89.25 C196.36 89.78 196.78 90.32 197.21 90.87 C216.23 115.16 228.05 142.92 236.94 172.25 C237.2 173.11 237.46 173.97 237.73 174.86 C246.8 205.49 247.57 238.42 247.82 270.11 C247.88 276.42 248.23 282.67 248.7 288.97 C249.93 306.02 248.65 322.9 247.12 339.88 C247.04 340.82 246.96 341.77 246.87 342.74 C245.98 352.84 244.83 362.69 242.69 372.61 C241.29 379.38 240.36 386.22 239.38 393.06 C239.27 393.81 239.16 394.56 239.05 395.33 C238.52 399.04 237.99 402.74 237.47 406.45 C237.06 409.4 236.62 412.35 236.17 415.3 C232.25 442.67 235.25 470.21 239.94 497.25 C240.15 498.48 240.35 499.71 240.57 500.98 C245.56 529.43 255.44 557.08 267.21 583.39 C267.94 585.25 267.94 585.25 267.94 587.25 C264.88 586.6 262.38 585.57 259.61 584.13 C258.76 583.7 257.91 583.26 257.04 582.81 C256.12 582.34 255.2 581.86 254.25 581.38 C233.39 570.82 211.99 562 189.94 554.25 C188.71 553.82 187.49 553.39 186.23 552.94 C170.24 547.32 154.22 542.56 137.66 538.89 C134.89 538.24 132.16 537.49 129.42 536.71 C123.07 534.95 116.63 533.86 110.13 532.79 C109.24 532.63 108.35 532.47 107.44 532.31 C106.64 532.18 105.85 532.05 105.03 531.91 C102.56 531.13 101.54 530.26 99.94 528.25 C90.15 504.18 90.15 504.18 92.94 496.25 C94.94 494.04 94.94 494.04 97.5 491.88 C98.41 491.09 99.32 490.3 100.26 489.49 C101.82 488.18 103.39 486.87 104.96 485.57 C139.57 456.28 161.97 411.79 177.94 370.25 C178.97 370.73 180.01 371.22 181.07 371.72 C187.1 374.29 193.41 374.39 199.65 372.37 C213.52 365.9 221.79 353.77 226.94 339.75 C231.84 325.19 231.18 309.76 224.56 295.81 C220.19 287.83 215.48 283.42 206.94 280.25 C202.9 279.27 199.51 278.59 195.6 280.22 C185.1 284.27 172.17 280.43 161.94 277.25 C160.85 276.92 160.85 276.92 159.75 276.58 C126.44 266.22 94.72 249.11 64.94 231.25 C63.25 230.24 61.55 229.23 59.86 228.22 C53.92 224.67 47.99 221.09 42.06 217.51 C-36.94 165.85 -36.94 165.85 -127.69 155.75 C-141.74 159.28 -154 165.98 -165.06 175.25 C-165.86 175.9 -166.66 176.54 -167.48 177.21 C-188.25 194.73 -191.57 217.69 -193.8 243.52 C-194.63 255.41 -194.85 267.34 -195.06 279.25 C-195.81 279.3 -196.55 279.36 -197.32 279.41 C-198.3 279.49 -199.28 279.57 -200.3 279.65 C-201.27 279.73 -202.24 279.8 -203.24 279.88 C-210.4 280.82 -214.99 284.49 -219.46 289.97 C-225.99 299.25 -228.41 308.47 -228.31 319.69 C-228.32 321.04 -228.32 321.04 -228.34 322.42 C-228.3 335.72 -223.57 347.51 -215.61 358.09 C-214.06 360.25 -214.06 360.25 -213.11 362.41 C-211.76 364.78 -210.53 365.17 -208.06 366.25 C-206.51 367.25 -204.97 368.27 -203.44 369.31 C-198.58 372.61 -196.11 373.41 -190.12 373.44 C-188.88 373.45 -187.63 373.47 -186.35 373.48 C-182.92 373.51 -182.92 373.51 -180.06 371.25 C-179.07 371.25 -178.08 371.25 -177.06 371.25 C-176.79 371.94 -176.52 372.63 -176.24 373.35 C-161.61 410.58 -143.24 445.3 -116.09 475 C-114.49 476.78 -112.98 478.57 -111.5 480.44 C-107.66 484.87 -103.19 488.61 -98.55 492.19 C-97.73 492.85 -96.91 493.51 -96.06 494.19 C-95.3 494.77 -94.54 495.36 -93.75 495.96 C-91.26 499.34 -91.47 502.27 -92.06 506.25 C-93.02 510.27 -94.23 514.19 -95.5 518.12 C-95.83 519.17 -96.15 520.21 -96.49 521.29 C-98.86 528.84 -98.86 528.84 -100.06 531.25 C-102.1 531.79 -102.1 531.79 -104.84 532.22 C-106.39 532.48 -106.39 532.48 -107.97 532.74 C-109.11 532.93 -110.26 533.12 -111.44 533.31 C-160.91 542.03 -213.74 558.11 -257.23 583.63 C-260.06 585.25 -260.06 585.25 -262.06 585.25 C-261.43 581.48 -260.34 578.24 -258.84 574.73 C-258.39 573.66 -257.94 572.59 -257.47 571.48 C-256.98 570.33 -256.5 569.18 -256 568 C-230.67 506.67 -225.89 445.21 -236.7 380.28 C-250.11 299.6 -250.52 199.9 -199.08 100 C-198.08 98.64 -198.08 98.64 -197.06 97.25 C-196.29 96.2 -195.53 95.15 -194.73 94.06 C-189.44 86.95 -183.74 80.27 -177.6 73.86 C-176.54 72.75 -175.49 71.63 -174.44 70.51 C-160.34 55.46 -144.09 43.22 -126.06 33.25 C-125.42 32.89 -124.78 32.52 -124.13 32.15 C-106.48 22.17 -87.96 15 -68.37 9.87 C-66.33 9.32 -64.31 8.73 -62.29 8.14 C-42.14 2.28 -20.93 0.02 0 0 Z " fill="#2D2D2D" transform="translate(513.0625,156.75)"/>
<path d="M0 0 C1.58 2.93 2.58 5.74 3.44 8.96 C3.69 9.91 3.95 10.85 4.21 11.83 C4.47 12.81 4.73 13.8 5 14.81 C5.52 16.76 6.04 18.7 6.56 20.64 C6.81 21.56 7.05 22.48 7.3 23.42 C8.17 26.63 9.08 29.81 10 33 C10.78 33.14 11.56 33.28 12.37 33.43 C15.93 34.07 19.5 34.72 23.06 35.38 C24.91 35.71 24.91 35.71 26.79 36.05 C32.62 37.12 38.34 38.2 44 40 C40.32 44.95 36.03 48.54 31.23 52.38 C27.57 55.32 24.04 58.41 20.5 61.5 C16.22 65.23 11.92 68.92 7.5 72.5 C2.47 76.58 -2.42 80.81 -7.31 85.06 C-12.96 89.98 -18.67 94.83 -24.41 99.66 C-27.11 101.93 -29.8 104.22 -32.5 106.5 C-35.74 109.24 -38.97 111.98 -42.21 114.71 C-43.29 115.62 -44.36 116.53 -45.44 117.44 C-45.97 117.89 -46.5 118.34 -47.05 118.8 C-50.49 121.71 -53.92 124.64 -57.33 127.58 C-62.89 132.36 -68.49 137.07 -74.18 141.69 C-79.51 146.06 -84.75 150.53 -90 155 C-94.46 153.58 -97.33 151.13 -100.62 147.94 C-105.37 143.46 -110.27 139.27 -115.35 135.18 C-117.97 133.02 -120.49 130.79 -123 128.5 C-126.4 125.4 -129.86 122.45 -133.44 119.56 C-138.21 115.7 -142.73 111.63 -147.25 107.47 C-150.83 104.25 -154.57 101.24 -158.32 98.21 C-160.95 96.04 -163.48 93.8 -166 91.5 C-169.42 88.39 -172.91 85.41 -176.5 82.5 C-180.96 78.89 -185.23 75.12 -189.47 71.25 C-192.09 68.92 -194.78 66.7 -197.5 64.5 C-201.95 60.9 -206.21 57.14 -210.43 53.28 C-214.13 50 -217.98 46.92 -221.85 43.85 C-224 42 -224 42 -225 40 C-221.44 39.19 -217.88 38.37 -214.31 37.56 C-213.31 37.33 -212.3 37.1 -211.26 36.87 C-210.28 36.64 -209.31 36.42 -208.3 36.19 C-207.41 35.99 -206.51 35.78 -205.59 35.57 C-200.58 34.46 -196.16 33.9 -191 34 C-190.83 33.37 -190.66 32.74 -190.48 32.09 C-188.7 25.48 -186.82 18.92 -184.87 12.36 C-183.98 8.91 -183.44 5.53 -183 2 C-179.14 3.36 -176.29 5.13 -173.06 7.62 C-166.68 12.37 -159.97 16.21 -153 20 C-152.2 20.45 -151.41 20.9 -150.59 21.37 C-123.91 35.76 -91.32 39.56 -62 32 C-61.03 31.75 -61.03 31.75 -60.04 31.5 C-38.16 25.69 -17.05 14.95 0 0 Z " fill="#B6795B" transform="translate(604,654)"/>
<path d="M0 0 C4.49 2.64 9.02 5.19 13.56 7.75 C21.47 12.24 29.21 16.95 36.93 21.76 C105.28 66.48 105.28 66.48 182.87 82.69 C184.55 82.06 186.22 81.39 187.87 80.69 C194.79 80.19 201.27 82.79 206.87 86.69 C209.63 89.46 211.79 92.4 213.87 95.69 C214.27 96.32 214.67 96.95 215.08 97.59 C221.49 108.99 222.55 123.19 219.68 135.75 C215.3 151.14 207.68 165.26 193.79 174 C187.83 177.1 181.48 177.87 174.87 176.69 C172.41 175.51 170.19 174.15 167.87 172.69 C168.15 171.86 168.15 171.86 168.43 171.01 C175.03 151.14 179.96 131.42 182.87 110.69 C181.88 111.02 180.89 111.35 179.87 111.69 C131.05 116.94 73.39 76.52 35.87 49.69 C17.57 36.67 -1.22 24.71 -20.53 13.24 C-23.19 11.66 -25.85 10.06 -28.51 8.47 C-41.21 0.88 -54.02 -6.44 -67.13 -13.31 C-67.87 -13.7 -68.62 -14.09 -69.39 -14.49 C-74.22 -16.98 -79.11 -19.24 -84.13 -21.31 C-84.93 -21.64 -85.73 -21.98 -86.56 -22.32 C-106.82 -30.47 -129.25 -31.52 -149.97 -24.02 C-168.47 -16.04 -183.95 -3.49 -198.13 10.69 C-197.35 1.64 -194.05 -3.87 -188.13 -10.62 C-187.55 -11.28 -186.98 -11.94 -186.38 -12.62 C-132.93 -72.53 -56.31 -33.49 0 0 Z " fill="#B07558" transform="translate(523.12890625,354.30810546875)"/>
<path d="M0 0 C1.86 1.5 3.6 3.08 5.35 4.72 C6.68 5.92 8.01 7.12 9.34 8.32 C10.01 8.94 10.68 9.55 11.37 10.18 C14.33 12.86 17.37 15.45 20.41 18.03 C21.57 19.02 22.73 20.01 23.88 21 C24.45 21.49 25.02 21.98 25.61 22.49 C28.53 24.98 31.44 27.47 34.35 29.97 C35.51 30.97 36.68 31.97 37.85 32.97 C44.85 38.97 51.85 44.97 58.85 50.97 C59.71 51.71 59.71 51.71 60.6 52.47 C61.76 53.47 62.93 54.47 64.1 55.47 C67 57.96 69.91 60.45 72.81 62.93 C79.47 68.64 86.12 74.36 92.74 80.11 C98.09 84.75 103.46 89.37 108.84 93.97 C111.3 96.07 113.75 98.17 116.19 100.28 C116.83 100.83 117.46 101.37 118.11 101.93 C119.32 102.97 120.52 104.01 121.73 105.05 C124.53 107.46 127.35 109.8 130.35 111.97 C139.52 107.86 147.26 99.34 154.8 92.77 C158.43 89.61 162.1 86.5 165.85 83.47 C170.88 79.39 175.77 75.16 180.66 70.91 C186.31 65.99 192.02 61.14 197.75 56.31 C200.46 54.04 203.15 51.75 205.85 49.47 C209.08 46.73 212.32 43.99 215.56 41.25 C216.64 40.35 217.71 39.44 218.78 38.53 C219.32 38.08 219.85 37.63 220.4 37.17 C223.84 34.26 227.26 31.33 230.68 28.39 C236.2 23.64 241.74 18.95 247.44 14.42 C249.71 12.5 251.84 10.56 253.98 8.49 C263.44 -0.54 263.44 -0.54 268.22 -1.78 C271.16 -1.57 273.55 -0.94 276.35 -0.03 C277.68 0.31 279.02 0.65 280.36 0.98 C284.05 1.9 287.7 2.91 291.35 3.97 C289.8 7.79 287.46 9.94 284.41 12.66 C283.68 13.31 283.68 13.31 282.93 13.98 C279.68 16.86 276.35 19.62 272.97 22.34 C268.18 26.21 263.68 30.32 259.18 34.53 C254.99 38.43 250.63 42.04 246.16 45.63 C242.37 48.79 238.78 52.15 235.18 55.53 C231.86 58.63 228.46 61.57 224.91 64.41 C220.53 67.92 216.43 71.63 212.35 75.47 C207.43 80.1 202.4 84.44 197.12 88.66 C193.92 91.32 190.88 94.12 187.85 96.97 C183.11 101.41 178.23 105.56 173.16 109.63 C169.37 112.79 165.78 116.15 162.18 119.53 C158.86 122.63 155.46 125.57 151.91 128.41 C145.06 133.9 138.73 139.94 132.35 145.97 C128.2 144.31 125.28 141.31 122.1 138.28 C120.93 137.19 119.76 136.09 118.59 135 C118.03 134.47 117.47 133.95 116.89 133.41 C114.41 131.1 111.86 128.88 109.29 126.67 C107.01 124.68 104.77 122.63 102.53 120.59 C99.16 117.54 95.71 114.63 92.16 111.78 C86.83 107.47 81.87 102.83 76.9 98.13 C72.48 93.97 67.91 90.1 63.17 86.32 C58.46 82.4 54.04 78.17 49.57 73.98 C46.53 71.12 43.42 68.36 40.26 65.63 C37.99 63.65 35.76 61.62 33.53 59.59 C30.16 56.54 26.71 53.63 23.16 50.78 C17.83 46.47 12.87 41.83 7.9 37.13 C3.48 32.97 -1.08 29.11 -5.82 25.32 C-13.46 18.97 -20.67 12.03 -27.65 4.97 C-6.03 -3.76 -6.03 -3.76 0 0 Z " fill="#762019" transform="translate(381.65283203125,696.030517578125)"/>
<path d="M0 0 C4.75 1.19 5.99 3.12 8.69 6.88 C9.57 8.06 10.46 9.25 11.34 10.44 C11.79 11.04 12.23 11.63 12.69 12.25 C17.98 19.31 23.62 25.91 30 32 C35 37 35 37 36.82 38.92 C43.34 45.69 50.46 51.42 58 57 C58.57 57.42 59.14 57.85 59.73 58.29 C85.9 77.52 115 85.53 147 87 C143.94 90.83 141 94.03 137.12 97.06 C132.53 100.74 128.06 104.51 123.62 108.38 C118.73 112.63 113.83 116.87 108.88 121.06 C108.36 121.5 107.84 121.94 107.3 122.4 C104.24 124.98 101.14 127.51 98 130 C93.54 128.58 90.67 126.13 87.38 122.94 C82.63 118.46 77.73 114.27 72.65 110.18 C70.03 108.02 67.51 105.79 65 103.5 C61.6 100.4 58.14 97.45 54.56 94.56 C49.79 90.7 45.27 86.63 40.75 82.47 C37.17 79.25 33.43 76.24 29.68 73.21 C27.05 71.04 24.52 68.8 22 66.5 C18.58 63.39 15.09 60.41 11.5 57.5 C7.04 53.89 2.77 50.12 -1.47 46.25 C-4.09 43.92 -6.78 41.7 -9.5 39.5 C-13.95 35.9 -18.21 32.14 -22.43 28.28 C-26.13 25 -29.98 21.92 -33.85 18.85 C-36 17 -36 17 -37 15 C-33.44 14.19 -29.88 13.37 -26.31 12.56 C-25.31 12.33 -24.3 12.1 -23.26 11.87 C-22.28 11.64 -21.31 11.42 -20.3 11.19 C-19.41 10.99 -18.51 10.78 -17.59 10.57 C-12.58 9.46 -8.16 8.9 -3 9 C-2.01 6.03 -1.02 3.06 0 0 Z " fill="#E49872" transform="translate(416,679)"/>
<path d="M0 0 C3.25 0.25 3.25 0.25 6 1 C4.95 2.02 4.95 2.02 3.88 3.06 C1.85 5.08 0 7.17 -1.81 9.38 C-4.57 12.63 -7.57 15.38 -10.82 18.13 C-13.13 20.11 -15.34 22.18 -17.56 24.25 C-27.51 33.21 -39.01 41.96 -51 48 C-51.66 47.67 -52.32 47.34 -53 47 C-45.78 40.18 -38.54 33.52 -30.78 27.31 C-27 24.17 -23.44 20.82 -19.86 17.46 C-15.51 13.41 -11 9.64 -6.34 5.94 C-3.95 4.04 -3.95 4.04 -1.89 1.73 C-1.27 1.16 -0.64 0.59 0 0 Z " fill="#872D24" transform="translate(673,701)"/>
</svg>
