<?xml version="1.0" encoding="UTF-8"?>
<!-- Generator: https://ezgif.com/webp-to-svg -->
<svg version="1.1" xmlns="http://www.w3.org/2000/svg" width="512" height="512">
<path d="M0 0 C0.67 0.17 1.34 0.33 2.02 0.5 C13.5 3.47 23.57 8.39 33.62 14.63 C35.98 15.99 38.25 16.91 40.81 17.81 C52.79 22.52 60.25 31.5 65.73 42.89 C67.32 46.79 68.29 50.68 69.07 54.82 C69.8 57.19 69.8 57.19 72.16 58.06 C73.09 58.37 74.03 58.68 75 59 C88.57 66.36 100.44 75.51 111.78 85.96 C113.79 87.81 115.85 89.56 117.94 91.31 C133.1 104.62 144.9 121.66 155 139 C155.38 139.66 155.77 140.31 156.16 140.99 C183.83 189.08 190.36 248.67 176.53 302.14 C166.71 338.16 148.82 370.07 123 397 C122.5 397.53 121.99 398.06 121.47 398.61 C113.57 406.91 105.21 414.19 96 421 C94.72 421.95 94.72 421.95 93.42 422.92 C64.03 444.14 30.76 456.02 -4.83 461.6 C-7.17 461.98 -7.17 461.98 -10 463 C-11.61 463.09 -13.23 463.12 -14.84 463.11 C-16.31 463.11 -16.31 463.11 -17.81 463.11 C-18.87 463.11 -19.92 463.1 -21.01 463.1 C-22.64 463.1 -22.64 463.1 -24.29 463.09 C-27.76 463.09 -31.22 463.08 -34.69 463.06 C-37.03 463.06 -39.38 463.05 -41.73 463.05 C-47.49 463.04 -53.24 463.02 -59 463 C-59 462.34 -59 461.68 -59 461 C-59.97 461 -59.97 461 -60.96 460.99 C-101.19 459.41 -143.3 438.3 -173 412 C-174.2 410.97 -174.2 410.97 -175.42 409.91 C-187.18 399.57 -197.71 388.61 -207 376 C-208.12 374.5 -208.12 374.5 -209.26 372.96 C-230.37 343.6 -243.3 309.82 -248 274 C-248.1 273.24 -248.2 272.48 -248.31 271.69 C-254.99 214.62 -237.95 157.59 -203 112.41 C-186.62 91.87 -166.57 71.97 -142.73 60.35 C-132.53 55.32 -129.04 50.21 -124.83 39.84 C-117.16 22.82 -97.58 12.37 -81.1 5.8 C-55.82 -3.67 -26.31 -6.67 0 0 Z " fill="#00B7E8" transform="translate(289,26)"/>
<path d="M0 0 C0.63 0.31 1.26 0.63 1.91 0.95 C31.29 15.01 69.26 15.16 101 10 C101.87 9.86 102.74 9.72 103.63 9.58 C113.76 7.9 123.51 6.03 133 2 C133.99 1.67 134.98 1.34 136 1 C139.13 8.53 142.25 16.07 145.36 23.61 C147.09 27.82 148.85 32.02 150.62 36.22 C157.86 53.44 164.54 70.55 168 89 C169.92 80.6 171.42 72.46 172.18 63.86 C173 61 173 61 175.39 59.14 C178.64 57.72 180.48 57.43 184 58 C187.71 60.57 190.44 62.75 192 67 C193.2 78.86 192.21 89.78 185.03 99.73 C178.31 107.63 178.31 107.63 172.93 108.23 C167.22 108.11 167.22 108.11 165 107 C164.77 108 164.54 109.01 164.3 110.04 C160.5 126.2 156.03 137.41 144 149 C143.23 149.76 143.23 149.76 142.44 150.54 C140.89 152.07 139.32 153.57 137.75 155.06 C136.97 155.81 136.97 155.81 136.17 156.57 C133.16 159.34 130.14 161.6 126.62 163.68 C118.86 168.1 118.86 168.1 114.27 175.37 C113.43 181.64 114.12 187.77 115 194 C115.17 195.41 115.34 196.83 115.51 198.24 C115.91 201.19 116.39 204.09 117 207 C118.24 207.37 119.48 207.74 120.75 208.12 C121.57 208.42 122.4 208.72 123.25 209.02 C125.99 210.04 125.99 210.04 128.81 210.76 C139.93 214.74 143.83 224.76 149.13 234.59 C152.27 240.32 155.61 245.94 158.92 251.57 C160.04 253.47 161.15 255.37 162.26 257.28 C162.96 258.47 163.65 259.65 164.35 260.84 C164.96 261.89 165.56 262.93 166.19 264.01 C167.47 266.11 168.82 268.18 170.23 270.2 C172 273 172 273 172 276 C168.25 277.74 164.5 279.48 160.75 281.22 C159.48 281.81 158.21 282.4 156.94 282.99 C148.3 287.01 139.65 291.01 131 295 C136.36 299.01 141.76 302.87 147.37 306.51 C148.32 307.12 149.26 307.74 150.24 308.37 C152.15 309.62 154.07 310.85 156 312.07 C156.89 312.65 157.78 313.23 158.7 313.83 C159.9 314.6 159.9 314.6 161.13 315.39 C163.34 317.29 163.61 318.16 164 321 C162.87 323.77 161.68 326.32 160.29 328.96 C159.9 329.75 159.5 330.53 159.09 331.33 C157.8 333.87 156.5 336.41 155.19 338.94 C153.41 342.39 151.64 345.84 149.88 349.3 C149.45 350.15 149.01 350.99 148.57 351.86 C145.71 357.48 143.17 363.15 140.75 368.98 C136.55 378.89 136.55 378.89 132.22 382 C128.76 383.19 125.64 383.61 122 384 C120.32 384.33 118.64 384.68 116.97 385.04 C110.7 386.39 104.44 387.66 98.09 388.55 C94.97 388.91 94.97 388.91 92 390 C90.39 390.09 88.77 390.12 87.16 390.11 C85.69 390.11 85.69 390.11 84.19 390.11 C83.13 390.11 82.08 390.1 80.99 390.1 C79.36 390.1 79.36 390.1 77.71 390.09 C74.24 390.09 70.78 390.08 67.31 390.06 C64.97 390.06 62.62 390.05 60.27 390.05 C54.51 390.04 48.76 390.02 43 390 C43 389.34 43 388.68 43 388 C42.03 388 42.03 388 41.04 387.99 C32.74 387.67 24.94 386.03 16.88 384.12 C15.76 383.87 14.65 383.61 13.5 383.35 C11.92 382.96 11.92 382.96 10.3 382.57 C9.36 382.34 8.41 382.11 7.43 381.88 C3.48 380.45 1.78 377.93 -0.05 374.26 C-0.42 373.51 -0.8 372.77 -1.18 372 C-1.58 371.19 -1.98 370.39 -2.39 369.55 C-2.81 368.71 -3.23 367.87 -3.66 367 C-4.55 365.21 -5.44 363.41 -6.33 361.62 C-7.66 358.93 -9 356.25 -10.33 353.57 C-12.49 349.23 -14.63 344.88 -16.76 340.53 C-17.58 338.85 -18.41 337.17 -19.25 335.49 C-20.41 333.15 -21.56 330.8 -22.71 328.45 C-23.06 327.75 -23.41 327.05 -23.77 326.33 C-26.06 321.56 -26.06 321.56 -25.76 318.94 C-24.42 315.54 -21.11 313.97 -18.16 312.05 C-17.47 311.59 -16.79 311.13 -16.08 310.66 C-13.9 309.2 -11.7 307.76 -9.5 306.31 C-7.3 304.85 -5.11 303.39 -2.92 301.93 C-1.55 301.02 -0.18 300.12 1.19 299.21 C4.24 297.3 4.24 297.3 7 295 C1.64 292.45 -3.71 289.91 -9.07 287.36 C-10.89 286.5 -12.72 285.63 -14.54 284.77 C-17.16 283.52 -19.78 282.28 -22.39 281.04 C-23.21 280.65 -24.03 280.26 -24.87 279.86 C-25.63 279.5 -26.39 279.14 -27.17 278.77 C-27.84 278.45 -28.51 278.13 -29.2 277.8 C-31.17 276.89 -31.17 276.89 -34 276 C-33.38 272.96 -32.4 270.76 -30.73 268.16 C-30.26 267.41 -29.79 266.67 -29.31 265.91 C-28.79 265.11 -28.28 264.32 -27.75 263.5 C-27.22 262.66 -26.68 261.83 -26.13 260.97 C-24.43 258.31 -22.72 255.65 -21 253 C-20.45 252.15 -19.9 251.3 -19.34 250.43 C-16.1 245.43 -12.85 240.44 -9.59 235.45 C-6.53 230.74 -3.48 226.01 -0.43 221.29 C5.03 212.85 5.03 212.85 11.88 210.56 C15.45 209.14 18.37 207.8 20.81 204.71 C22.1 201.43 22.59 198.52 23 195 C23.12 194.17 23.23 193.33 23.35 192.48 C24.91 181.46 24.91 181.46 21.83 171.12 C18.7 167.8 14.9 165.55 10.99 163.25 C7.63 161.14 4.72 158.55 1.75 155.94 C1.17 155.44 0.59 154.93 -0.01 154.42 C-10.77 145.05 -18.38 136.93 -23.25 123.5 C-23.51 122.79 -23.77 122.08 -24.03 121.34 C-25.69 116.55 -26.52 112.05 -27 107 C-27.99 107.5 -27.99 107.5 -29 108 C-33.62 108.66 -37.69 108.66 -41.69 106.06 C-49.7 99.46 -53.27 89.96 -55 80 C-55.66 72.78 -55.28 67.02 -51 61 C-48.63 58.48 -47.57 58.06 -44.12 57.69 C-40.83 58.02 -38.1 58.85 -35 60 C-34.67 60 -34.34 60 -34 60 C-32.68 69.9 -31.36 79.8 -30 90 C-29.67 86.37 -29.34 82.74 -29 79 C-26.58 65.07 -22.32 53.31 -15.67 40.83 C-8.67 27.67 -2.69 14.77 0 0 Z " fill="#DCC5A1" transform="translate(187,99)"/>
<path d="M0 0 C15.83 5.78 29.56 17.7 41.78 28.96 C43.79 30.81 45.85 32.56 47.94 34.31 C63.1 47.62 74.9 64.66 85 82 C85.38 82.66 85.77 83.31 86.16 83.99 C113.83 132.08 120.36 191.67 106.53 245.14 C96.71 281.16 78.82 313.07 53 340 C52.5 340.53 51.99 341.06 51.47 341.61 C43.57 349.91 35.21 357.19 26 364 C25.15 364.63 24.3 365.27 23.42 365.92 C5.1 379.15 -14.84 388.32 -36 396 C-36.33 395.34 -36.66 394.68 -37 394 C-36.28 392.04 -36.28 392.04 -35.08 389.62 C-34.64 388.71 -34.19 387.8 -33.73 386.86 C-33 385.38 -33 385.38 -32.24 383.88 C-31.74 382.86 -31.24 381.84 -30.73 380.79 C-29.12 377.53 -27.5 374.26 -25.88 371 C-24.8 368.83 -23.73 366.66 -22.66 364.49 C-20.68 360.46 -18.69 356.44 -16.69 352.42 C-16.03 351.07 -16.03 351.07 -15.35 349.69 C-14.43 347.85 -13.48 346.03 -12.51 344.22 C-12.04 343.34 -11.57 342.46 -11.09 341.55 C-10.66 340.77 -10.24 339.99 -9.8 339.18 C-8.85 336.59 -8.89 335.51 -10 333 C-12.34 331.18 -14.6 329.59 -17.1 328.02 C-17.81 327.56 -18.52 327.09 -19.25 326.62 C-21.51 325.15 -23.79 323.7 -26.06 322.25 C-27.6 321.26 -29.14 320.26 -30.67 319.27 C-34.44 316.83 -38.22 314.41 -42 312 C-39.96 309.79 -38.12 308.39 -35.4 307.1 C-34.69 306.76 -33.98 306.42 -33.25 306.07 C-32.1 305.53 -32.1 305.53 -30.94 304.99 C-30.15 304.62 -29.36 304.24 -28.55 303.86 C-26.89 303.07 -25.22 302.29 -23.56 301.51 C-21.01 300.31 -18.46 299.11 -15.91 297.9 C-14.3 297.13 -12.68 296.37 -11.06 295.61 C-9.92 295.07 -9.92 295.07 -8.75 294.51 C-3.35 292 -3.35 292 0 292 C-5.22 282.26 -10.75 272.71 -16.41 263.22 C-17.18 261.94 -17.94 260.65 -18.71 259.36 C-19.08 258.73 -19.46 258.1 -19.84 257.45 C-22.06 253.69 -24.12 249.89 -26.07 245.98 C-31.81 234.85 -36.45 230.45 -48.24 226.07 C-54.56 223.6 -54.56 223.6 -56.95 220.32 C-57.88 216.77 -57.98 213.68 -58 210 C-58.19 208.29 -58.4 206.59 -58.61 204.88 C-59.88 191.95 -59.88 191.95 -56.84 187.18 C-53.69 183.87 -49.89 181.6 -46 179.27 C-42.62 177.13 -39.68 174.51 -36.69 171.88 C-36.1 171.37 -35.52 170.87 -34.92 170.35 C-24.34 161.15 -16.5 152.99 -12.31 139.44 C-11.87 138.06 -11.87 138.06 -11.42 136.65 C-10.86 134.89 -10.3 133.12 -9.74 131.35 C-8.86 128.56 -7.94 125.78 -7 123 C-6.35 123.05 -5.7 123.09 -5.02 123.14 C0.91 123.39 4.42 123.16 9 119 C16.52 110.96 19.33 102.02 19.5 91.19 C19.52 90.47 19.54 89.75 19.56 89.01 C19.5 83.88 18.24 80.93 15 77 C11.51 74.67 10.1 74.67 6 75 C4.65 75.63 3.31 76.29 2 77 C1.92 72.35 1.98 67.85 2.49 63.22 C3.14 56.31 3.19 49.41 3.19 42.47 C3.19 40.27 3.21 38.07 3.22 35.87 C3.26 26.4 2.46 17.36 1 8 C0.78 6.36 0.57 4.71 0.38 3.06 C0.25 2.05 0.13 1.04 0 0 Z " fill="#00B7E8" transform="translate(359,83)"/>
<path d="M0 0 C4.22 4.05 7.93 8.41 11.62 12.94 C12.55 14.06 12.55 14.06 13.49 15.21 C17.68 20.34 21.8 25.51 25.86 30.73 C30.11 36.17 34.47 41.52 38.85 46.85 C39.38 47.49 39.9 48.13 40.45 48.8 C40.91 49.37 41.38 49.94 41.87 50.53 C43 52 43 52 44 54 C48.1 52.46 49.88 49.85 52.44 46.38 C53.32 45.19 54.21 44 55.1 42.82 C55.57 42.2 56.04 41.57 56.52 40.93 C59.04 37.64 61.68 34.45 64.31 31.25 C69.55 24.86 74.62 18.35 79.6 11.76 C82.63 7.75 85.75 3.84 89 0 C91.72 2.72 91.61 4.85 92.12 8.62 C92.29 9.81 92.46 11 92.63 12.23 C92.75 13.14 92.88 14.06 93 15 C94.24 15.37 95.48 15.74 96.75 16.12 C97.57 16.42 98.4 16.72 99.25 17.02 C101.99 18.04 101.99 18.04 104.81 18.76 C115.93 22.74 119.83 32.76 125.13 42.59 C128.27 48.32 131.61 53.94 134.92 59.57 C136.04 61.47 137.15 63.37 138.26 65.28 C138.96 66.47 139.65 67.65 140.35 68.84 C140.96 69.89 141.56 70.93 142.19 72.01 C143.47 74.11 144.82 76.18 146.23 78.2 C148 81 148 81 148 84 C144.25 85.74 140.5 87.48 136.75 89.22 C135.48 89.81 134.21 90.4 132.94 90.99 C124.3 95.01 115.65 99.01 107 103 C112.36 107.01 117.76 110.87 123.37 114.51 C124.32 115.12 125.26 115.74 126.24 116.37 C128.15 117.62 130.07 118.85 132 120.07 C132.89 120.65 133.78 121.23 134.7 121.83 C135.5 122.34 136.3 122.86 137.13 123.39 C139.34 125.29 139.61 126.16 140 129 C138.87 131.77 137.68 134.32 136.29 136.96 C135.9 137.75 135.5 138.53 135.09 139.33 C133.8 141.87 132.5 144.41 131.19 146.94 C129.41 150.39 127.64 153.84 125.88 157.3 C125.45 158.15 125.01 158.99 124.57 159.86 C121.71 165.48 119.17 171.15 116.75 176.98 C112.55 186.89 112.55 186.89 108.22 190 C104.76 191.19 101.64 191.61 98 192 C96.32 192.33 94.64 192.68 92.97 193.04 C86.7 194.39 80.44 195.66 74.09 196.55 C70.97 196.91 70.97 196.91 68 198 C66.39 198.09 64.77 198.12 63.16 198.11 C61.69 198.11 61.69 198.11 60.19 198.11 C59.13 198.11 58.08 198.1 56.99 198.1 C55.36 198.1 55.36 198.1 53.71 198.09 C50.24 198.09 46.78 198.08 43.31 198.06 C40.97 198.06 38.62 198.05 36.27 198.05 C30.51 198.04 24.76 198.02 19 198 C19 197.34 19 196.68 19 196 C18.35 196 17.7 195.99 17.04 195.99 C8.74 195.67 0.94 194.03 -7.12 192.12 C-8.8 191.74 -8.8 191.74 -10.5 191.35 C-11.56 191.09 -12.61 190.83 -13.7 190.57 C-14.64 190.34 -15.59 190.11 -16.57 189.88 C-20.52 188.45 -22.22 185.93 -24.05 182.26 C-24.42 181.51 -24.8 180.77 -25.18 180 C-25.58 179.19 -25.98 178.39 -26.39 177.55 C-27.02 176.29 -27.02 176.29 -27.66 175 C-28.55 173.21 -29.44 171.41 -30.33 169.62 C-31.66 166.93 -33 164.25 -34.33 161.57 C-36.49 157.23 -38.63 152.88 -40.76 148.53 C-41.58 146.85 -42.41 145.17 -43.25 143.49 C-44.41 141.15 -45.56 138.8 -46.71 136.45 C-47.06 135.75 -47.41 135.05 -47.77 134.33 C-50.06 129.56 -50.06 129.56 -49.76 126.94 C-48.42 123.54 -45.11 121.97 -42.16 120.05 C-41.13 119.36 -41.13 119.36 -40.08 118.66 C-37.9 117.2 -35.7 115.76 -33.5 114.31 C-31.3 112.85 -29.11 111.39 -26.92 109.93 C-25.55 109.02 -24.18 108.12 -22.81 107.21 C-19.76 105.3 -19.76 105.3 -17 103 C-22.36 100.45 -27.71 97.91 -33.07 95.36 C-34.89 94.5 -36.72 93.63 -38.54 92.77 C-41.16 91.52 -43.78 90.28 -46.39 89.04 C-47.21 88.65 -48.03 88.26 -48.87 87.86 C-49.63 87.5 -50.39 87.14 -51.17 86.77 C-52.17 86.29 -52.17 86.29 -53.2 85.8 C-55.17 84.89 -55.17 84.89 -58 84 C-57.38 80.96 -56.4 78.76 -54.73 76.16 C-54.26 75.41 -53.79 74.67 -53.31 73.91 C-52.79 73.11 -52.28 72.32 -51.75 71.5 C-51.22 70.66 -50.68 69.83 -50.13 68.97 C-48.43 66.31 -46.72 63.65 -45 61 C-44.45 60.15 -43.9 59.3 -43.34 58.43 C-40.1 53.43 -36.85 48.44 -33.59 43.45 C-30.53 38.74 -27.48 34.01 -24.43 29.29 C-18.99 20.89 -18.99 20.89 -12.19 18.75 C-8.77 17.52 -5.9 16.37 -3.85 13.26 C-1.94 9 -0.89 4.57 0 0 Z " fill="#A2CAEA" transform="translate(211,291)"/>
<path d="M0 0 C0.67 0.17 1.34 0.33 2.02 0.5 C13.5 3.47 23.57 8.39 33.62 14.63 C35.98 15.99 38.25 16.91 40.81 17.81 C52.81 22.53 60.08 31.43 65.64 42.78 C80.59 78.23 76.69 126.88 66 163 C65.67 163 65.34 163 65 163 C64.84 162.19 64.84 162.19 64.68 161.36 C60.34 139.4 52.18 119.32 43.25 98.88 C34 77.69 34 77.69 34 74 C32.48 74.87 32.48 74.87 30.94 75.75 C21.93 80.22 11.72 82 1.88 83.69 C1.18 83.81 0.49 83.93 -0.22 84.05 C-12.19 85.97 -24.28 86.24 -36.38 86.25 C-37.49 86.25 -37.49 86.25 -38.62 86.25 C-59.68 86.22 -82.55 85.2 -101 74 C-101.31 75.18 -101.61 76.35 -101.93 77.57 C-106.15 93.05 -112.79 106.97 -120.16 121.18 C-123.69 128.01 -126.38 134.47 -128 142 C-128.29 143.18 -128.29 143.18 -128.58 144.38 C-130.29 151.83 -130.61 159.39 -131 167 C-133.02 163.56 -133.52 160.4 -134.04 156.47 C-134.2 155.18 -134.37 153.9 -134.55 152.57 C-134.68 151.57 -134.68 151.57 -134.8 150.54 C-135.06 148.53 -135.32 146.53 -135.59 144.52 C-139.19 116.76 -141.82 85.97 -133 59 C-132.6 57.66 -132.2 56.31 -131.8 54.96 C-125.6 35.71 -111.93 21.19 -94.22 11.78 C-65.99 -2.56 -30.87 -7.82 0 0 Z " fill="#422F18" transform="translate(289,26)"/>
<path d="M0 0 C0.66 0 1.32 0 2 0 C5.13 7.53 8.25 15.07 11.36 22.61 C13.09 26.82 14.85 31.02 16.62 35.22 C23.86 52.44 30.54 69.55 34 88 C35.92 79.6 37.42 71.46 38.18 62.86 C39 60 39 60 41.39 58.14 C44.64 56.72 46.48 56.43 50 57 C53.71 59.57 56.44 61.75 58 66 C59.2 77.86 58.21 88.78 51.03 98.73 C44.31 106.63 44.31 106.63 38.93 107.23 C33.22 107.11 33.22 107.11 31 106 C30.77 107 30.54 108.01 30.3 109.04 C26.5 125.2 22.03 136.41 10 148 C9.23 148.76 9.23 148.76 8.44 149.54 C-9.64 167.32 -38.54 192 -65 192 C-65 177.81 -65 163.62 -65 149 C-67.64 148.67 -70.28 148.34 -73 148 C-78.82 145.63 -83.54 141.2 -87 136 C-87 135.34 -87 134.68 -87 134 C-79.74 134 -72.48 134 -65 134 C-65 93.74 -65 53.48 -65 12 C-52.13 11.01 -52.13 11.01 -39 10 C-34.11 9.3 -29.38 8.59 -24.56 7.62 C-23.48 7.43 -22.41 7.23 -21.29 7.03 C-9.86 5.27 -9.86 5.27 0 0 Z " fill="#ECD8B3" transform="translate(321,100)"/>
<path d="M0 0 C0.5 0.99 0.5 0.99 1 2 C-0.4 4.44 -1.86 6.73 -3.44 9.06 C-4.46 10.6 -5.47 12.14 -6.49 13.68 C-7.05 14.53 -7.61 15.37 -8.19 16.25 C-11.54 21.34 -14.79 26.49 -18.06 31.62 C-23 39.37 -27.98 47.09 -33.17 54.67 C-34.83 57.12 -36.06 59.17 -37 62 C-36.35 62.09 -35.69 62.18 -35.02 62.27 C-30.97 63.25 -27.43 64.96 -23.67 66.75 C-22.49 67.3 -22.49 67.3 -21.28 67.87 C-19.62 68.65 -17.96 69.44 -16.3 70.23 C-13.75 71.44 -11.2 72.63 -8.64 73.83 C-7.03 74.59 -5.41 75.36 -3.8 76.12 C-3.03 76.48 -2.26 76.84 -1.47 77.21 C3.89 79.77 3.89 79.77 5 82 C-5.89 89.26 -16.78 96.52 -28 104 C-27.26 107.71 -26.75 109.89 -25.16 113.11 C-24.78 113.88 -24.41 114.66 -24.02 115.46 C-23.61 116.29 -23.2 117.11 -22.77 117.96 C-22.35 118.83 -21.92 119.7 -21.48 120.6 C-20.12 123.38 -18.75 126.16 -17.38 128.94 C-16.47 130.77 -15.57 132.61 -14.68 134.44 C-9.78 144.44 -9.78 144.44 -4.75 154.37 C-4.42 155.02 -4.08 155.67 -3.74 156.35 C-2.86 158.06 -1.96 159.77 -1.07 161.48 C-0.54 162.73 -0.54 162.73 0 164 C-0.33 164.66 -0.66 165.32 -1 166 C-27.75 156.44 -52.58 143.97 -74 125 C-74.8 124.31 -75.6 123.62 -76.42 122.91 C-92.34 108.91 -105.19 93.55 -117 76 C-105.68 50.87 -74.02 37.45 -51 25 C-49.63 24.25 -48.27 23.49 -46.9 22.74 C-31.68 14.38 -15.8 7.19 0 0 Z " fill="#3E7EBB" transform="translate(190,313)"/>
<path d="M0 0 C31.08 12.34 62.95 28.33 90 48 C90.61 48.44 91.23 48.89 91.86 49.35 C101.45 56.36 108.74 63.13 114 74 C99.02 96.12 81.58 116.11 60 132 C59.15 132.63 58.3 133.27 57.43 133.92 C39.1 147.15 19.16 156.32 -2 164 C-2.33 163.34 -2.66 162.68 -3 162 C-2.28 160.04 -2.28 160.04 -1.08 157.62 C-0.64 156.71 -0.19 155.8 0.27 154.86 C0.76 153.88 1.25 152.89 1.76 151.88 C2.51 150.35 2.51 150.35 3.27 148.79 C4.88 145.53 6.5 142.26 8.12 139 C9.2 136.83 10.27 134.66 11.34 132.49 C13.32 128.46 15.31 124.44 17.31 120.42 C17.97 119.07 17.97 119.07 18.65 117.69 C19.57 115.85 20.52 114.03 21.49 112.22 C21.96 111.34 22.43 110.46 22.91 109.55 C23.34 108.77 23.76 107.99 24.2 107.18 C25.15 104.59 25.11 103.51 24 101 C21.66 99.18 19.4 97.59 16.9 96.02 C16.19 95.56 15.48 95.09 14.75 94.62 C12.49 93.15 10.21 91.7 7.94 90.25 C6.4 89.26 4.86 88.26 3.33 87.27 C-0.44 84.83 -4.22 82.41 -8 80 C-5.96 77.79 -4.12 76.39 -1.4 75.1 C-0.34 74.59 -0.34 74.59 0.75 74.07 C1.9 73.53 1.9 73.53 3.06 72.99 C3.85 72.62 4.64 72.24 5.45 71.86 C7.11 71.07 8.78 70.29 10.44 69.51 C12.99 68.31 15.54 67.11 18.09 65.9 C19.7 65.13 21.32 64.37 22.94 63.61 C23.7 63.25 24.46 62.89 25.25 62.51 C30.65 60 30.65 60 34 60 C29.46 51.53 24.68 43.22 19.81 34.94 C19.44 34.31 19.07 33.68 18.69 33.03 C13.59 24.32 8.42 15.65 3.05 7.1 C0 2.21 0 2.21 0 0 Z " fill="#3E7EBC" transform="translate(325,315)"/>
<path d="M0 0 C4.2 3.48 8.09 7 11.69 11.12 C14.37 14.19 17.09 17.15 20 20 C18.27 25.14 15.18 28.43 11.58 32.4 C7.38 41.96 11.85 56.85 13.33 67.04 C13.73 69.81 14.13 72.59 14.53 75.36 C15.37 81.24 16.21 87.12 17.06 93 C18.05 99.85 19.03 106.69 20.01 113.54 C20.4 116.27 20.8 118.99 21.2 121.72 C21.44 123.39 21.68 125.07 21.91 126.74 C22.02 127.49 22.14 128.24 22.25 129.01 C22.82 133.04 23.11 136.93 23 141 C16.01 142.12 9.09 142.15 2.02 142.13 C0 142.13 -2.01 142.13 -4.02 142.14 C-10.44 142.13 -16.66 142.02 -23 141 C-22.39 131.4 -21.07 121.95 -19.67 112.45 C-19.27 109.71 -18.87 106.97 -18.47 104.24 C-17.35 96.46 -16.21 88.68 -15.07 80.91 C-14.37 76.13 -13.68 71.35 -12.99 66.57 C-12.72 64.76 -12.46 62.95 -12.19 61.14 C-11.82 58.61 -11.45 56.08 -11.09 53.54 C-10.98 52.81 -10.86 52.07 -10.75 51.32 C-9.36 42.38 -9.36 42.38 -10.92 33.69 C-11.55 32.88 -11.55 32.88 -12.19 32.06 C-12.64 31.46 -13.09 30.85 -13.55 30.23 C-14.27 29.34 -14.27 29.34 -15 28.44 C-15.48 27.81 -15.95 27.18 -16.45 26.54 C-17.61 25.01 -18.8 23.5 -20 22 C-18.51 18.53 -16.54 16.31 -13.87 13.67 C-12.66 12.47 -12.66 12.47 -11.43 11.25 C-10.58 10.43 -9.74 9.6 -8.88 8.75 C-8.03 7.91 -7.18 7.07 -6.3 6.2 C-4.2 4.13 -2.1 2.06 0 0 Z " fill="#1C75BC" transform="translate(256,347)"/>
<path d="M0 0 C3.18 3.1 6.15 6.2 8.81 9.75 C9.42 10.53 10.02 11.31 10.64 12.11 C13.75 18.72 11.76 26.93 10.71 33.93 C10.58 34.87 10.44 35.82 10.3 36.8 C9.85 39.9 9.4 43 8.94 46.1 C8.62 48.26 8.31 50.42 8 52.58 C7.17 58.25 6.34 63.92 5.51 69.58 C4.66 75.37 3.82 81.17 2.98 86.96 C1.32 98.31 -0.34 109.65 -2 121 C-2.99 121 -3.98 121 -5 121 C-6.12 111.43 -7.24 101.85 -8.36 92.28 C-8.89 87.83 -9.41 83.38 -9.93 78.93 C-10.03 78.08 -10.13 77.22 -10.23 76.33 C-10.44 74.61 -10.64 72.89 -10.84 71.16 C-11.34 66.91 -11.83 62.65 -12.31 58.39 C-13.16 50.84 -14.07 43.33 -15.25 35.82 C-15.43 34.59 -15.61 33.36 -15.8 32.1 C-16.13 29.87 -16.49 27.66 -16.9 25.45 C-17.54 20.93 -17.69 18.19 -15.36 14.16 C-10.93 8.58 -5.82 4.09 0 0 Z " fill="#E4E5E4" transform="translate(235,368)"/>
<path d="M0 0 C5.21 4.22 9.65 8.8 14.08 13.83 C15.34 15.26 16.65 16.65 18 18 C17.92 20.91 17.92 20.91 17.45 24.68 C17.37 25.37 17.28 26.06 17.2 26.77 C16.92 29.07 16.63 31.36 16.33 33.65 C16.13 35.27 15.94 36.88 15.74 38.49 C15.22 42.77 14.68 47.05 14.14 51.33 C13.61 55.57 13.08 59.82 12.56 64.06 C12.35 65.73 12.15 67.4 11.94 69.07 C11.84 69.89 11.74 70.71 11.64 71.55 C11.33 74.02 11.03 76.48 10.72 78.95 C9.03 92.62 7.47 106.3 6 120 C4.51 120.5 4.51 120.5 3 121 C1.17 108.21 -0.66 95.43 -2.48 82.64 C-3.32 76.7 -4.17 70.76 -5.02 64.83 C-5.84 59.09 -6.66 53.36 -7.47 47.63 C-7.78 45.44 -8.09 43.26 -8.41 41.07 C-8.85 38.01 -9.28 34.95 -9.71 31.88 C-9.91 30.53 -9.91 30.53 -10.11 29.15 C-11.83 16.89 -11.83 16.89 -10.1 12.94 C-9.69 12.39 -9.27 11.85 -8.85 11.29 C-8.18 10.38 -8.18 10.38 -7.49 9.46 C-7.02 8.85 -6.55 8.25 -6.06 7.62 C-5.59 7 -5.13 6.37 -4.64 5.72 C-1.39 1.39 -1.39 1.39 0 0 Z " fill="#E4E5E4" transform="translate(276,368)"/>
<path d="M0 0 C0.86 0.58 0.86 0.58 1.74 1.18 C20.18 13.41 20.18 13.41 41 20 C41.69 20.12 42.38 20.24 43.1 20.37 C58.88 21.82 77.59 8.49 90 0 C90.8 4.88 91.09 9.15 90 14 C86.71 17.33 83 19.25 78.79 21.17 C77.13 21.94 75.52 22.8 73.92 23.67 C60.99 30.66 47.95 34.42 33.38 30.81 C22.98 27.57 7.86 21.86 0 14 C-0.07 11.65 -0.08 9.29 -0.06 6.94 C-0.05 5.65 -0.04 4.36 -0.04 3.03 C-0.02 2.03 -0.01 1.03 0 0 Z " fill="#BCA083" transform="translate(211,272)"/>
<path d="M0 0 C0.63 0.35 1.26 0.7 1.91 1.07 C16.25 8.98 28.79 14.76 45 18 C45 31.53 45 45.06 45 59 C44.34 59 43.68 59 43 59 C41.32 57.04 39.74 55.06 38.19 53 C37.19 51.71 36.2 50.42 35.2 49.12 C34.68 48.45 34.15 47.77 33.61 47.07 C30.96 43.67 28.23 40.34 25.5 37 C20.88 31.34 16.32 25.65 11.84 19.89 C9.78 17.24 7.7 14.64 5.54 12.08 C4.8 11.21 4.07 10.34 3.31 9.44 C2.67 8.69 2.03 7.95 1.36 7.18 C-0.26 4.59 -0.28 3.01 0 0 Z " fill="#DBC5A1" transform="translate(211,286)"/>
<path d="M0 0 C13.86 0 27.72 0 42 0 C39.51 6.24 36.51 8.49 31 11.81 C24.79 14.21 16.72 14.36 10.49 12.09 C6.1 9.5 2.94 6.13 0 2 C0 1.34 0 0.68 0 0 Z " fill="#FEFEFD" transform="translate(235,235)"/>
<path d="M0 0 C2.94 2.44 2.94 2.44 5 5 C5.33 5.33 5.66 5.66 6 6 C6.44 10.61 6.56 14.73 4.69 19 C2.7 21.36 0.99 22.81 -2.09 23.41 C-8.14 23.65 -8.14 23.65 -10.66 21.73 C-14.53 17.09 -15.5 13.98 -15 8 C-11.46 1.52 -7.56 -1.5 0 0 Z " fill="#382617" transform="translate(217,159)"/>
<path d="M0 0 C3.16 2.56 5.73 4.79 6.24 8.95 C6.42 14.51 5.74 17.6 2 22 C-1.49 23.74 -5.2 23.71 -9 23 C-11.8 20.87 -13.43 18.14 -15 15 C-15.55 9.3 -14.61 6.43 -11 2 C-7.33 -0.45 -4.26 -0.84 0 0 Z " fill="#372517" transform="translate(303,159)"/>
<path d="M0 0 C0.99 0.5 0.99 0.5 2 1 C2.31 3.55 2.51 6 2.62 8.56 C2.66 9.27 2.7 9.98 2.74 10.72 C2.84 12.48 2.92 14.24 3 16 C2.01 16 1.02 16 0 16 C0 10.72 0 5.44 0 0 Z " fill="#376590" transform="translate(372,438)"/>
</svg>
